<?xml version="1.0" encoding="UTF-8" standalone="no"?>
<svg width="1000px" height="900px" viewBox="0 0 1000 900" version="1.1" xmlns="http://www.w3.org/2000/svg" xmlns:xlink="http://www.w3.org/1999/xlink">
    <g stroke="none" stroke-width="1" fill="none" fill-rule="evenodd">
        <path d="M885.158632,291.674081 C837.925996,123.391649 683.37283,0 500,0 C279.0861,0 100,179.0861 100,400 L300,400 C300,289.54305 389.54305,200 500,200 C578.233503,200 645.975582,244.919131 678.842074,310.373232 C713.814861,287.981657 755.391416,275 800,275 C830.137232,275 858.890569,280.925159 885.158638,291.674103 Z M100,400 L300,400 L300,700 L100,700 L100,400 Z M400,700 L0,700 L200,900 L400,700 Z" fill="#D0011B"></path>
        <path d="M900,673.243561 L900,900 L700,900 L700,673.243561 C640.219838,638.662579 600,574.028213 600,500 C600,389.54305 689.54305,300 800,300 C910.45695,300 1000,389.54305 1000,500 C1000,574.028213 959.780162,638.662579 900.000056,673.243529 Z M800,625 C869.035594,625 925,569.035594 925,500 C925,430.964406 869.035594,375 800,375 C730.964406,375 675,430.964406 675,500 C675,569.035594 730.964406,625 800,625 Z" fill="#000000"></path>
    </g>
</svg>
